<svg id="Layer_1" data-name="Layer 1" xmlns="http://www.w3.org/2000/svg" viewBox="0 0 512 512"><title>dribbble-square-glyph</title><g id="Dribbble"><rect id="back" width="512" height="512" fill="#262626"/><path id="dribble" d="M323.63,354.79A436.12,436.12,0,0,0,301,273.2c20.9-2.62,45-2,73,3.11A120.3,120.3,0,0,1,323.63,354.79Zm-140.27-3.7c20.21-30.46,48.41-60.57,94.15-73.23a409.17,409.17,0,0,1,24.15,88.89,121,121,0,0,1-45.65,9A119,119,0,0,1,183.36,351.09ZM136.29,256v-3.83H137c42.65,0,85.08-2.87,123-14,2.75,5.73,5.64,11.59,8.25,17.68-49.93,14.71-81.11,47.55-102.37,78.84A118.63,118.63,0,0,1,136.29,256ZM204.5,147.88a588.67,588.67,0,0,1,44.33,68.81c-33.69,9.21-71.32,11.71-109.31,11.83A120.58,120.58,0,0,1,204.5,147.88Zm129,17c-16.84,20.55-38,34.64-62,44.2a620.54,620.54,0,0,0-43.7-69.41A122.11,122.11,0,0,1,256,136.3,119.14,119.14,0,0,1,333.55,164.84ZM350,182a119.71,119.71,0,0,1,25.67,70.6c-32.26-5.61-60-5.86-83.87-2-3.09-6.93-6.2-13.76-9.43-20.32C308.08,219.8,331.15,204.39,350,182Zm-94-69.41A143.36,143.36,0,1,0,399.36,256,143.32,143.32,0,0,0,256,112.64Z" fill="#fff"/></g></svg>